<mxfile host="Electron" modified="2024-01-08T17:57:58.484Z" agent="Mozilla/5.0 (X11; Linux x86_64) AppleWebKit/537.36 (KHTML, like Gecko) draw.io/22.1.16 Chrome/120.0.6099.109 Electron/28.1.0 Safari/537.36" etag="9U8Jg2ql4C3sEU4Is8uv" version="22.1.16" type="device">
  <diagram name="Page-1" id="OyvQ59jnxVh3Fzwv67hc">
    <mxGraphModel dx="1362" dy="843" grid="1" gridSize="10" guides="1" tooltips="1" connect="1" arrows="1" fold="1" page="1" pageScale="1" pageWidth="850" pageHeight="1100" math="1" shadow="0">
      <root>
        <mxCell id="0" />
        <mxCell id="1" parent="0" />
        <mxCell id="-xXznVvq-PS3zZDveB0t-1" value="" style="endArrow=classic;html=1;rounded=0;" edge="1" parent="1">
          <mxGeometry width="50" height="50" relative="1" as="geometry">
            <mxPoint x="140" y="400" as="sourcePoint" />
            <mxPoint x="140" y="110" as="targetPoint" />
          </mxGeometry>
        </mxCell>
        <mxCell id="-xXznVvq-PS3zZDveB0t-2" value="" style="endArrow=classic;html=1;rounded=0;" edge="1" parent="1">
          <mxGeometry width="50" height="50" relative="1" as="geometry">
            <mxPoint x="100" y="360" as="sourcePoint" />
            <mxPoint x="490" y="360" as="targetPoint" />
          </mxGeometry>
        </mxCell>
        <mxCell id="-xXznVvq-PS3zZDveB0t-3" value="" style="rounded=1;whiteSpace=wrap;html=1;strokeColor=none;fillColor=#CCCCCC;rotation=330;" vertex="1" parent="1">
          <mxGeometry x="200" y="200" width="220" height="100" as="geometry" />
        </mxCell>
        <mxCell id="-xXznVvq-PS3zZDveB0t-4" value="" style="rounded=1;whiteSpace=wrap;html=1;strokeColor=none;fillColor=#666666;rotation=330;" vertex="1" parent="1">
          <mxGeometry x="220" y="260" width="27.81" height="7.32" as="geometry" />
        </mxCell>
        <mxCell id="-xXznVvq-PS3zZDveB0t-6" value="" style="rounded=1;whiteSpace=wrap;html=1;strokeColor=none;fillColor=#666666;rotation=330;" vertex="1" parent="1">
          <mxGeometry x="246" y="305" width="27.81" height="7.32" as="geometry" />
        </mxCell>
        <mxCell id="-xXznVvq-PS3zZDveB0t-9" value="" style="rounded=1;whiteSpace=wrap;html=1;strokeColor=none;fillColor=#666666;rotation=300;" vertex="1" parent="1">
          <mxGeometry x="342" y="191" width="27.81" height="7.32" as="geometry" />
        </mxCell>
        <mxCell id="-xXznVvq-PS3zZDveB0t-10" value="" style="rounded=1;whiteSpace=wrap;html=1;strokeColor=none;fillColor=#666666;rotation=300;" vertex="1" parent="1">
          <mxGeometry x="370" y="234" width="27.81" height="7.32" as="geometry" />
        </mxCell>
        <mxCell id="-xXznVvq-PS3zZDveB0t-11" value="" style="endArrow=none;html=1;rounded=0;entryX=0.5;entryY=1;entryDx=0;entryDy=0;exitX=0.5;exitY=0;exitDx=0;exitDy=0;" edge="1" parent="1" source="-xXznVvq-PS3zZDveB0t-6" target="-xXznVvq-PS3zZDveB0t-4">
          <mxGeometry width="50" height="50" relative="1" as="geometry">
            <mxPoint x="400" y="460" as="sourcePoint" />
            <mxPoint x="450" y="410" as="targetPoint" />
          </mxGeometry>
        </mxCell>
        <mxCell id="-xXznVvq-PS3zZDveB0t-12" value="" style="endArrow=none;html=1;rounded=0;entryX=0.5;entryY=1;entryDx=0;entryDy=0;exitX=0.5;exitY=0;exitDx=0;exitDy=0;" edge="1" parent="1" source="-xXznVvq-PS3zZDveB0t-10" target="-xXznVvq-PS3zZDveB0t-9">
          <mxGeometry width="50" height="50" relative="1" as="geometry">
            <mxPoint x="400" y="460" as="sourcePoint" />
            <mxPoint x="450" y="410" as="targetPoint" />
          </mxGeometry>
        </mxCell>
        <mxCell id="-xXznVvq-PS3zZDveB0t-13" value="" style="endArrow=classic;startArrow=classic;html=1;rounded=0;" edge="1" parent="1">
          <mxGeometry width="50" height="50" relative="1" as="geometry">
            <mxPoint x="208" y="211" as="sourcePoint" />
            <mxPoint x="330" y="140" as="targetPoint" />
          </mxGeometry>
        </mxCell>
        <mxCell id="-xXznVvq-PS3zZDveB0t-14" value="$$L$$" style="text;html=1;strokeColor=none;fillColor=none;align=center;verticalAlign=middle;whiteSpace=wrap;rounded=0;fontSize=25;" vertex="1" parent="1">
          <mxGeometry x="239.99999999999997" y="140" width="60" height="30" as="geometry" />
        </mxCell>
        <mxCell id="-xXznVvq-PS3zZDveB0t-15" value="" style="endArrow=none;html=1;rounded=0;" edge="1" parent="1">
          <mxGeometry width="50" height="50" relative="1" as="geometry">
            <mxPoint x="250" y="287" as="sourcePoint" />
            <mxPoint x="370" y="217" as="targetPoint" />
          </mxGeometry>
        </mxCell>
        <mxCell id="-xXznVvq-PS3zZDveB0t-16" value="" style="endArrow=none;html=1;rounded=0;" edge="1" parent="1">
          <mxGeometry width="50" height="50" relative="1" as="geometry">
            <mxPoint x="190" y="289" as="sourcePoint" />
            <mxPoint x="420" y="289" as="targetPoint" />
          </mxGeometry>
        </mxCell>
        <mxCell id="-xXznVvq-PS3zZDveB0t-18" value="" style="curved=1;endArrow=classic;html=1;rounded=0;" edge="1" parent="1">
          <mxGeometry width="50" height="50" relative="1" as="geometry">
            <mxPoint x="314" y="290" as="sourcePoint" />
            <mxPoint x="314" y="250" as="targetPoint" />
            <Array as="points">
              <mxPoint x="334" y="270" />
            </Array>
          </mxGeometry>
        </mxCell>
        <mxCell id="-xXznVvq-PS3zZDveB0t-19" value="$$\theta$$" style="text;html=1;strokeColor=none;fillColor=none;align=center;verticalAlign=middle;whiteSpace=wrap;rounded=0;fontSize=20;" vertex="1" parent="1">
          <mxGeometry x="310" y="248.66" width="60" height="30" as="geometry" />
        </mxCell>
        <mxCell id="-xXznVvq-PS3zZDveB0t-20" value="" style="ellipse;whiteSpace=wrap;html=1;aspect=fixed;fillColor=#000000;" vertex="1" parent="1">
          <mxGeometry x="368" y="212" width="10" height="10" as="geometry" />
        </mxCell>
        <mxCell id="-xXznVvq-PS3zZDveB0t-21" value="$$(x,y)$$" style="text;html=1;strokeColor=none;fillColor=none;align=center;verticalAlign=middle;whiteSpace=wrap;rounded=0;fontSize=20;" vertex="1" parent="1">
          <mxGeometry x="395" y="198.32" width="60" height="30" as="geometry" />
        </mxCell>
        <mxCell id="-xXznVvq-PS3zZDveB0t-22" value="" style="endArrow=none;html=1;rounded=0;" edge="1" parent="1">
          <mxGeometry width="50" height="50" relative="1" as="geometry">
            <mxPoint x="360" y="196.32" as="sourcePoint" />
            <mxPoint x="418" y="162" as="targetPoint" />
          </mxGeometry>
        </mxCell>
        <mxCell id="-xXznVvq-PS3zZDveB0t-23" value="" style="endArrow=none;html=1;rounded=0;exitX=0.5;exitY=1;exitDx=0;exitDy=0;" edge="1" parent="1" source="-xXznVvq-PS3zZDveB0t-9">
          <mxGeometry width="50" height="50" relative="1" as="geometry">
            <mxPoint x="400" y="460" as="sourcePoint" />
            <mxPoint x="410" y="110" as="targetPoint" />
          </mxGeometry>
        </mxCell>
        <mxCell id="-xXznVvq-PS3zZDveB0t-24" value="$$\delta$$" style="text;html=1;strokeColor=none;fillColor=none;align=center;verticalAlign=middle;whiteSpace=wrap;rounded=0;fontSize=20;" vertex="1" parent="1">
          <mxGeometry x="370" y="140" width="60" height="30" as="geometry" />
        </mxCell>
        <mxCell id="-xXznVvq-PS3zZDveB0t-25" value="" style="endArrow=classic;html=1;rounded=0;" edge="1" parent="1">
          <mxGeometry width="50" height="50" relative="1" as="geometry">
            <mxPoint x="373" y="216.16" as="sourcePoint" />
            <mxPoint x="443" y="177.16" as="targetPoint" />
          </mxGeometry>
        </mxCell>
        <mxCell id="-xXznVvq-PS3zZDveB0t-26" value="$$v$$" style="text;html=1;strokeColor=none;fillColor=none;align=center;verticalAlign=middle;whiteSpace=wrap;rounded=0;fontSize=20;" vertex="1" parent="1">
          <mxGeometry x="425" y="160" width="60" height="30" as="geometry" />
        </mxCell>
        <mxCell id="-xXznVvq-PS3zZDveB0t-27" value="" style="curved=1;endArrow=classic;html=1;rounded=0;" edge="1" parent="1">
          <mxGeometry width="50" height="50" relative="1" as="geometry">
            <mxPoint x="416" y="164" as="sourcePoint" />
            <mxPoint x="400" y="124" as="targetPoint" />
            <Array as="points">
              <mxPoint x="420" y="144" />
            </Array>
          </mxGeometry>
        </mxCell>
      </root>
    </mxGraphModel>
  </diagram>
</mxfile>
